<svg xmlns="http://www.w3.org/2000/svg" width="662" height="74" style="
        width:662px;
        height:74px;
        background: transparent;
        fill: none;
">
        
        <svg xmlns="http://www.w3.org/2000/svg"><g class="shapes-region" style="stroke: black; fill: none;"><g class="composite-shape"><path class="real" d=" M74,36 C74,22.19 85.19,11 99,11 C112.81,11 124,22.19 124,36 C124,49.81 112.81,61 99,61 C85.19,61 74,49.81 74,36 Z" style="stroke-width: 1; stroke: rgb(0, 0, 0); fill: none;"/></g><g class="composite-shape"><path class="real" d=" M389,38 C389,24.19 400.19,13 414,13 C427.81,13 439,24.19 439,38 C439,51.81 427.81,63 414,63 C400.19,63 389,51.81 389,38 Z" style="stroke-width: 1; stroke: rgb(208, 2, 27); fill: none;"/></g><g class="composite-shape"><path class="real" d=" M468,37 C468,23.19 479.19,12 493,12 C506.81,12 518,23.19 518,37 C518,50.81 506.81,62 493,62 C479.19,62 468,50.81 468,37 Z" style="stroke-width: 1; stroke: rgb(0, 0, 0); fill: none;"/></g><g class="composite-shape"><path class="real" d=" M231,37 C231,23.19 242.19,12 256,12 C269.81,12 281,23.19 281,37 C281,50.81 269.81,62 256,62 C242.19,62 231,50.81 231,37 Z" style="stroke-width: 1; stroke: rgb(208, 2, 27); fill: none;"/></g><g class="composite-shape"><path class="real" d=" M309,37 C309,23.19 320.19,12 334,12 C347.81,12 359,23.19 359,37 C359,50.81 347.81,62 334,62 C320.19,62 309,50.81 309,37 Z" style="stroke-width: 1; stroke: rgb(208, 2, 27); fill: none;"/></g><g class="composite-shape"><path class="real" d=" M152,36 C152,22.19 163.19,11 177,11 C190.81,11 202,22.19 202,36 C202,49.81 190.81,61 177,61 C163.19,61 152,49.81 152,36 Z" style="stroke-width: 1; stroke: rgb(208, 2, 27); fill: none;"/></g><g class="arrow-line"><path class="connection real" stroke-dasharray="" d="  M124,36 L150,36" style="stroke: rgb(0, 0, 0); stroke-width: 1; fill: none;"/><g stroke="#000" transform="matrix(-1,1.2246467991473532e-16,-1.2246467991473532e-16,-1,152,35.99999999999999)" style="stroke: rgb(0, 0, 0); stroke-width: 1;"><path d=" M10.93,-3.29 Q4.96,-0.45 0,0 Q4.96,0.45 10.93,3.29"/></g></g><g class="arrow-line"><path class="connection real" stroke-dasharray="" d="  M439,38 L465,38" style="stroke: rgb(0, 0, 0); stroke-width: 1; fill: none;"/><g stroke="#000" transform="matrix(-1,1.2246467991473532e-16,-1.2246467991473532e-16,-1,467,38)" style="stroke: rgb(0, 0, 0); stroke-width: 1;"><path d=" M10.93,-3.29 Q4.96,-0.45 0,0 Q4.96,0.45 10.93,3.29"/></g></g><g class="arrow-line"><path class="connection real" stroke-dasharray="" d="  M359,37 L385,37" style="stroke: rgb(208, 2, 27); stroke-width: 1; fill: none;"/><g stroke="rgba(208,2,27,1)" transform="matrix(-1,1.2246467991473532e-16,-1.2246467991473532e-16,-1,387,36.99999999999999)" style="stroke: rgb(208, 2, 27); stroke-width: 1;"><path d=" M10.93,-3.29 Q4.96,-0.45 0,0 Q4.96,0.45 10.93,3.29"/></g></g><g class="arrow-line"><path class="connection real" stroke-dasharray="" d="  M281,37 L307,37" style="stroke: rgb(208, 2, 27); stroke-width: 1; fill: none;"/><g stroke="rgba(208,2,27,1)" transform="matrix(-1,1.2246467991473532e-16,-1.2246467991473532e-16,-1,309,37.00000000000001)" style="stroke: rgb(208, 2, 27); stroke-width: 1;"><path d=" M10.93,-3.29 Q4.96,-0.45 0,0 Q4.96,0.45 10.93,3.29"/></g></g><g class="arrow-line"><path class="connection real" stroke-dasharray="" d="  M202,36 L228,36" style="stroke: rgb(208, 2, 27); stroke-width: 1; fill: none;"/><g stroke="rgba(208,2,27,1)" transform="matrix(-1,1.2246467991473532e-16,-1.2246467991473532e-16,-1,230,36)" style="stroke: rgb(208, 2, 27); stroke-width: 1;"><path d=" M10.93,-3.29 Q4.96,-0.45 0,0 Q4.96,0.45 10.93,3.29"/></g></g><g class="arrow-line"><path class="connection real" stroke-dasharray="" d="  M518,37 L544,37" style="stroke: rgb(0, 0, 0); stroke-width: 1; fill: none;"/><g stroke="#000" transform="matrix(-1,1.2246467991473532e-16,-1.2246467991473532e-16,-1,546,37.00000000000001)" style="stroke: rgb(0, 0, 0); stroke-width: 1;"><path d=" M10.93,-3.29 Q4.96,-0.45 0,0 Q4.96,0.45 10.93,3.29"/></g></g><g class="composite-shape"><path class="real" d=" M155.25,36 C155.25,23.99 164.99,14.25 177,14.25 C189.01,14.25 198.75,23.99 198.75,36 C198.75,48.01 189.01,57.75 177,57.75 C164.99,57.75 155.25,48.01 155.25,36 Z" style="stroke-width: 1; stroke: rgb(208, 2, 27); fill: none;"/></g><g class="composite-shape"><path class="real" d=" M392.25,38 C392.25,25.99 401.99,16.25 414,16.25 C426.01,16.25 435.75,25.99 435.75,38 C435.75,50.01 426.01,59.75 414,59.75 C401.99,59.75 392.25,50.01 392.25,38 Z" style="stroke-width: 1; stroke: rgb(208, 2, 27); fill: none;"/></g><g class="intersections-group"><g style="stroke: rgb(0, 0, 0); stroke-width: 1; fill: none;"/></g></g><g/><g/><!-- react-empty: 10484 --></svg>
        <svg xmlns="http://www.w3.org/2000/svg" width="660" height="72" style="width:660px;height:72px;font-family:Asana-Math, Asana;background:transparent;"><g><g><g style="transform:matrix(1,0,0,1,93.890625,44.980000000000004);"><path d="M418 -3L418 27L366 30C311 33 301 44 301 96L301 700L60 598L67 548L217 614L217 96C217 44 206 33 152 30L96 27L96 -3C250 0 250 0 261 0C292 0 402 -3 418 -3Z" stroke="rgb(0, 0, 0)" stroke-width="8" fill="rgb(0, 0, 0)" style="transform:matrix(0.024480000000000002,0,0,-0.024480000000000002,0,0);"></path></g></g></g><g><g><g style="transform:matrix(1,0,0,1,171.890625,44.980000000000004);"><path d="M16 23L16 -3C203 -3 203 0 239 0C275 0 275 -3 468 -3L468 82C353 77 307 81 122 77L304 270C401 373 431 428 431 503C431 618 353 689 226 689C154 689 105 669 56 619L39 483L68 483L81 529C97 587 133 612 200 612C286 612 341 558 341 473C341 398 299 324 186 204Z" stroke="rgb(0, 0, 0)" stroke-width="8" fill="rgb(0, 0, 0)" style="transform:matrix(0.024480000000000002,0,0,-0.024480000000000002,0,0);"></path></g></g></g><g><g><g style="transform:matrix(1,0,0,1,250.890625,46.980000000000004);"><path d="M462 224C462 345 355 366 308 374C388 436 418 482 418 541C418 630 344 689 233 689C165 689 120 670 72 622L43 498L74 498L92 554C103 588 166 622 218 622C283 622 336 569 336 506C336 431 277 368 206 368C198 368 187 369 174 370L159 371L147 318L154 312C192 329 211 334 238 334C321 334 369 281 369 190C369 88 308 21 215 21C169 21 128 36 98 64C74 86 61 109 42 163L15 153C36 92 44 56 50 6C103 -12 147 -20 184 -20C307 -20 462 87 462 224Z" stroke="rgb(0, 0, 0)" stroke-width="8" fill="rgb(0, 0, 0)" style="transform:matrix(0.024480000000000002,0,0,-0.024480000000000002,0,0);"></path></g></g></g><g><g><g style="transform:matrix(1,0,0,1,327.890625,44.980000000000004);"><path d="M280 181L280 106C280 46 269 32 220 30L158 27L158 -3C291 0 291 0 315 0C339 0 339 0 472 -3L472 27L424 30C375 33 364 46 364 106L364 181C423 181 444 180 472 177L472 248L364 245L365 697L285 667L2 204L2 181ZM280 245L65 245L280 597Z" stroke="rgb(0, 0, 0)" stroke-width="8" fill="rgb(0, 0, 0)" style="transform:matrix(0.024480000000000002,0,0,-0.024480000000000002,0,0);"></path></g></g></g><g><g><g style="transform:matrix(1,0,0,1,407.890625,46.980000000000004);"><path d="M459 253C459 366 378 446 264 446C216 446 180 443 127 396L127 605L432 604L432 689L75 690L75 322L95 316C142 363 169 377 218 377C314 377 374 309 374 201C374 90 310 25 201 25C147 25 97 43 83 69L37 151L13 137C36 80 48 48 62 4C90 -11 130 -20 173 -20C301 -20 459 89 459 253Z" stroke="rgb(0, 0, 0)" stroke-width="8" fill="rgb(0, 0, 0)" style="transform:matrix(0.024480000000000002,0,0,-0.024480000000000002,0,0);"></path></g></g></g><g><g><g style="transform:matrix(1,0,0,1,486.890625,46.980000000000004);"><path d="M131 331C152 512 241 611 421 665L379 689C283 657 242 637 191 593C88 506 32 384 32 247C32 82 112 -20 241 -20C371 -20 468 83 468 219C468 334 399 409 293 409C216 409 184 370 131 331ZM255 349C331 349 382 283 382 184C382 80 331 13 254 13C169 13 123 86 123 220C123 255 127 274 138 291C160 325 207 349 255 349Z" stroke="rgb(0, 0, 0)" stroke-width="8" fill="rgb(0, 0, 0)" style="transform:matrix(0.024480000000000002,0,0,-0.024480000000000002,0,0);"></path></g></g></g><g><g><g style="transform:matrix(1,0,0,1,550.4140625,44.980000000000004);"><path d="M499 329C469 329 442 301 442 271C442 241 469 213 498 213C530 213 558 240 558 271C558 301 530 329 499 329ZM166 329C136 329 109 301 109 271C109 241 136 213 165 213C197 213 225 240 225 271C225 301 197 329 166 329ZM832 329C802 329 775 301 775 271C775 241 802 213 831 213C863 213 891 240 891 271C891 301 863 329 832 329Z" stroke="rgb(0, 0, 0)" stroke-width="8" fill="rgb(0, 0, 0)" style="transform:matrix(0.024480000000000002,0,0,-0.024480000000000002,0,0);"></path></g></g></g></svg>
</svg>
