<svg xmlns="http://www.w3.org/2000/svg" width="662" height="156" style="
        width:662px;
        height:156px;
        background: transparent;
        fill: none;
">
        
        <svg xmlns="http://www.w3.org/2000/svg"><g class="shapes-region" style="stroke: black; fill: none;"><g class="composite-shape"><path class="real" d=" M440,77 C440,63.19 451.19,52 465,52 C478.81,52 490,63.19 490,77 C490,90.81 478.81,102 465,102 C451.19,102 440,90.81 440,77 Z" style="stroke-width: 1; stroke: rgb(0, 0, 0); fill: none;"/></g><g class="composite-shape"><path class="real" d=" M305,77 C305,63.19 316.19,52 330,52 C343.81,52 355,63.19 355,77 C355,90.81 343.81,102 330,102 C316.19,102 305,90.81 305,77 Z" style="stroke-width: 1; stroke: rgb(0, 0, 0); fill: none;"/></g><g class="composite-shape"><path class="real" d=" M170,76 C170,62.19 181.19,51 195,51 C208.81,51 220,62.19 220,76 C220,89.81 208.81,101 195,101 C181.19,101 170,89.81 170,76 Z" style="stroke-width: 1; stroke: rgb(0, 0, 0); fill: none;"/></g><g class="arrow-line"><path class="connection real" stroke-dasharray="" d="  M142,76 L168,76" style="stroke: rgb(0, 0, 0); stroke-width: 1; fill: none;"/><g stroke="#000" transform="matrix(-1,1.2246467991473532e-16,-1.2246467991473532e-16,-1,170,76.00000000000001)" style="stroke: rgb(0, 0, 0); stroke-width: 1;"><path d=" M10.93,-3.29 Q4.96,-0.45 0,0 Q4.96,0.45 10.93,3.29"/></g></g><g class="arrow-line"><path class="connection real" stroke-dasharray="" d="  M490,77 L516,77" style="stroke: rgb(0, 0, 0); stroke-width: 1; fill: none;"/><g stroke="#000" transform="matrix(-1,1.2246467991473532e-16,-1.2246467991473532e-16,-1,518,77)" style="stroke: rgb(0, 0, 0); stroke-width: 1;"><path d=" M10.93,-3.29 Q4.96,-0.45 0,0 Q4.96,0.45 10.93,3.29"/></g></g><g class="arrow-line"><path class="connection real" stroke-dasharray="" d="  M355,77 L381,77" style="stroke: rgb(0, 0, 0); stroke-width: 1; fill: none;"/><g stroke="rgba(0,0,0,1)" transform="matrix(-1,1.2246467991473532e-16,-1.2246467991473532e-16,-1,383,76.99999999999999)" style="stroke: rgb(0, 0, 0); stroke-width: 1;"><path d=" M10.93,-3.29 Q4.96,-0.45 0,0 Q4.96,0.45 10.93,3.29"/></g></g><g class="arrow-line"><path class="connection real" stroke-dasharray="" d="  M277,77 L303,77" style="stroke: rgb(0, 0, 0); stroke-width: 1; fill: none;"/><g stroke="rgba(0,0,0,1)" transform="matrix(-1,1.2246467991473532e-16,-1.2246467991473532e-16,-1,305,76.99999999999999)" style="stroke: rgb(0, 0, 0); stroke-width: 1;"><path d=" M10.93,-3.29 Q4.96,-0.45 0,0 Q4.96,0.45 10.93,3.29"/></g></g><g class="arrow-line"><path class="connection real" stroke-dasharray="" d="  M220,76 L246,76" style="stroke: rgb(0, 0, 0); stroke-width: 1; fill: none;"/><g stroke="rgba(0,0,0,1)" transform="matrix(-1,1.2246467991473532e-16,-1.2246467991473532e-16,-1,248,76)" style="stroke: rgb(0, 0, 0); stroke-width: 1;"><path d=" M10.93,-3.29 Q4.96,-0.45 0,0 Q4.96,0.45 10.93,3.29"/></g></g><g class="arrow-line"><path class="connection real" stroke-dasharray="" d="  M412,77 L438,77" style="stroke: rgb(0, 0, 0); stroke-width: 1; fill: none;"/><g stroke="rgba(0,0,0,1)" transform="matrix(-1,1.2246467991473532e-16,-1.2246467991473532e-16,-1,440,77)" style="stroke: rgb(0, 0, 0); stroke-width: 1;"><path d=" M10.93,-3.29 Q4.96,-0.45 0,0 Q4.96,0.45 10.93,3.29"/></g></g><g class="composite-shape"><path class="real" d=" M313.07,40 Q313.07,33 306.07,33 L264.41,33 Q254.41,33 254.41,26 Q254.41,33 244.41,33 M247.41,33 L204,33 Q197,33 197,40" style="stroke-width: 1; stroke: rgb(0, 0, 0); fill: none;"/><!-- react-text: 9817 -->/&gt;<!-- /react-text --></g><g class="composite-shape"><path class="real" d=" M198.5,111 Q198.5,118 205.5,118 L322.51,118 Q332.51,118 332.51,125 Q332.51,118 342.51,118 M339.51,118 L459.53,118 Q466.53,118 466.53,111" style="stroke-width: 1; stroke: rgb(0, 0, 0); fill: none;"/><!-- react-text: 11216 -->/&gt;<!-- /react-text --></g><g class="composite-shape"><path class="real" d=" M462.07,40 Q462.07,33 455.07,33 L413.41,33 Q403.41,33 403.41,26 Q403.41,33 393.41,33 M396.41,33 L353,33 Q346,33 346,40" style="stroke-width: 1; stroke: rgb(0, 0, 0); fill: none;"/><!-- react-text: 14366 -->/&gt;<!-- /react-text --></g><g class="intersections-group"><g style="stroke: rgb(0, 0, 0); stroke-width: 1; fill: none;"/></g></g><g/><g/><!-- react-empty: 760 --></svg>
        <svg xmlns="http://www.w3.org/2000/svg" width="660" height="154" style="width:660px;height:154px;font-family:Asana-Math, Asana;background:transparent;"><g><g><g style="transform:matrix(1,0,0,1,189.5234375,82.98);"><path d="M271 204L242 77C238 60 236 42 236 26C236 4 245 -9 260 -9C283 -9 324 17 406 85L399 106C375 86 346 59 324 59C315 59 309 68 309 82C309 87 309 90 310 93L402 472L392 481L359 463C318 478 301 482 274 482C246 482 226 477 199 464C137 433 104 403 79 354C35 265 4 145 4 67C4 23 19 -11 38 -11C75 -11 155 41 271 204ZM319 414C297 305 278 253 244 201C187 117 126 59 94 59C82 59 76 72 76 99C76 163 104 280 139 360C163 415 186 433 234 433C257 433 275 429 319 414Z" stroke="rgb(0, 0, 0)" stroke-width="8" fill="rgb(0, 0, 0)" style="transform:matrix(0.024480000000000002,0,0,-0.024480000000000002,0,0);"></path></g></g></g><g><g><g style="transform:matrix(1,0,0,1,324.34375,84.98);"><path d="M235 722L223 733C171 707 135 698 63 691L59 670L107 670C131 670 141 663 141 646C141 639 140 628 139 622L38 71C37 68 37 64 37 61C37 22 85 -11 140 -11C177 -11 228 8 271 39C367 107 433 244 433 376C433 414 424 453 412 468C405 477 392 482 377 482C353 482 323 474 295 460C244 433 211 403 149 324ZM322 424C348 424 361 401 361 352C361 288 340 202 310 137C277 68 237 36 183 36C137 36 112 59 112 101C112 135 127 276 208 361C241 395 293 424 322 424Z" stroke="rgb(0, 0, 0)" stroke-width="8" fill="rgb(0, 0, 0)" style="transform:matrix(0.024480000000000002,0,0,-0.024480000000000002,0,0);"></path></g></g></g><g><g><g style="transform:matrix(1,0,0,1,459.78125,85.98);"><path d="M342 330L365 330C373 395 380 432 389 458C365 473 330 482 293 482C248 483 175 463 118 400C64 352 25 241 25 136C25 40 67 -11 147 -11C201 -11 249 9 304 54L354 95L346 115L331 105C259 57 221 40 186 40C130 40 101 80 101 159C101 267 136 371 185 409C206 425 230 433 261 433C306 433 342 414 342 390Z" stroke="rgb(0, 0, 0)" stroke-width="8" fill="rgb(0, 0, 0)" style="transform:matrix(0.024480000000000002,0,0,-0.024480000000000002,0,0);"></path></g></g></g><g><g><g style="transform:matrix(1,0,0,1,521.4140625,84.98);"><path d="M499 329C469 329 442 301 442 271C442 241 469 213 498 213C530 213 558 240 558 271C558 301 530 329 499 329ZM166 329C136 329 109 301 109 271C109 241 136 213 165 213C197 213 225 240 225 271C225 301 197 329 166 329ZM832 329C802 329 775 301 775 271C775 241 802 213 831 213C863 213 891 240 891 271C891 301 863 329 832 329Z" stroke="rgb(0, 0, 0)" stroke-width="8" fill="rgb(0, 0, 0)" style="transform:matrix(0.024480000000000002,0,0,-0.024480000000000002,0,0);"></path></g></g></g><g><g><g style="transform:matrix(1,0,0,1,112.4140625,82.98);"><path d="M499 329C469 329 442 301 442 271C442 241 469 213 498 213C530 213 558 240 558 271C558 301 530 329 499 329ZM166 329C136 329 109 301 109 271C109 241 136 213 165 213C197 213 225 240 225 271C225 301 197 329 166 329ZM832 329C802 329 775 301 775 271C775 241 802 213 831 213C863 213 891 240 891 271C891 301 863 329 832 329Z" stroke="rgb(0, 0, 0)" stroke-width="8" fill="rgb(0, 0, 0)" style="transform:matrix(0.024480000000000002,0,0,-0.024480000000000002,0,0);"></path></g></g></g><g><g><g style="transform:matrix(1,0,0,1,250.4140625,83.98);"><path d="M499 329C469 329 442 301 442 271C442 241 469 213 498 213C530 213 558 240 558 271C558 301 530 329 499 329ZM166 329C136 329 109 301 109 271C109 241 136 213 165 213C197 213 225 240 225 271C225 301 197 329 166 329ZM832 329C802 329 775 301 775 271C775 241 802 213 831 213C863 213 891 240 891 271C891 301 863 329 832 329Z" stroke="rgb(0, 0, 0)" stroke-width="8" fill="rgb(0, 0, 0)" style="transform:matrix(0.024480000000000002,0,0,-0.024480000000000002,0,0);"></path></g></g></g><g><g><g style="transform:matrix(1,0,0,1,385.4140625,83.98);"><path d="M499 329C469 329 442 301 442 271C442 241 469 213 498 213C530 213 558 240 558 271C558 301 530 329 499 329ZM166 329C136 329 109 301 109 271C109 241 136 213 165 213C197 213 225 240 225 271C225 301 197 329 166 329ZM832 329C802 329 775 301 775 271C775 241 802 213 831 213C863 213 891 240 891 271C891 301 863 329 832 329Z" stroke="rgb(0, 0, 0)" stroke-width="8" fill="rgb(0, 0, 0)" style="transform:matrix(0.024480000000000002,0,0,-0.024480000000000002,0,0);"></path></g></g></g><g><g><g style="transform:matrix(1,0,0,1,237.53125,19);"><path d="M271 204L242 77C238 60 236 42 236 26C236 4 245 -9 260 -9C283 -9 324 17 406 85L399 106C375 86 346 59 324 59C315 59 309 68 309 82C309 87 309 90 310 93L402 472L392 481L359 463C318 478 301 482 274 482C246 482 226 477 199 464C137 433 104 403 79 354C35 265 4 145 4 67C4 23 19 -11 38 -11C75 -11 155 41 271 204ZM319 414C297 305 278 253 244 201C187 117 126 59 94 59C82 59 76 72 76 99C76 163 104 280 139 360C163 415 186 433 234 433C257 433 275 429 319 414Z" stroke="rgb(0, 0, 0)" stroke-width="8" fill="rgb(0, 0, 0)" style="transform:matrix(0.017,0,0,-0.017,0,0);"></path></g><g style="transform:matrix(1,0,0,1,250.53125,19);"><path d="M604 -81L604 -25L65 -25L65 -81ZM604 56L604 137C604 137 501 282 226 341C501 399 604 542 604 542L604 623C604 621 502 422 65 352L65 326C502 256 604 56 604 56Z" stroke="rgb(0, 0, 0)" stroke-width="8" fill="rgb(0, 0, 0)" style="transform:matrix(0.017,0,0,-0.017,0,0);"></path></g><g style="transform:matrix(1,0,0,1,266.53125,19);"><path d="M235 722L223 733C171 707 135 698 63 691L59 670L107 670C131 670 141 663 141 646C141 639 140 628 139 622L38 71C37 68 37 64 37 61C37 22 85 -11 140 -11C177 -11 228 8 271 39C367 107 433 244 433 376C433 414 424 453 412 468C405 477 392 482 377 482C353 482 323 474 295 460C244 433 211 403 149 324ZM322 424C348 424 361 401 361 352C361 288 340 202 310 137C277 68 237 36 183 36C137 36 112 59 112 101C112 135 127 276 208 361C241 395 293 424 322 424Z" stroke="rgb(0, 0, 0)" stroke-width="8" fill="rgb(0, 0, 0)" style="transform:matrix(0.017,0,0,-0.017,0,0);"></path></g></g></g><g><g><g style="transform:matrix(1,0,0,1,386.84375,22);"><path d="M235 722L223 733C171 707 135 698 63 691L59 670L107 670C131 670 141 663 141 646C141 639 140 628 139 622L38 71C37 68 37 64 37 61C37 22 85 -11 140 -11C177 -11 228 8 271 39C367 107 433 244 433 376C433 414 424 453 412 468C405 477 392 482 377 482C353 482 323 474 295 460C244 433 211 403 149 324ZM322 424C348 424 361 401 361 352C361 288 340 202 310 137C277 68 237 36 183 36C137 36 112 59 112 101C112 135 127 276 208 361C241 395 293 424 322 424Z" stroke="rgb(0, 0, 0)" stroke-width="8" fill="rgb(0, 0, 0)" style="transform:matrix(0.017,0,0,-0.017,0,0);"></path></g><g style="transform:matrix(1,0,0,1,399.84375,22);"><path d="M604 -81L604 -25L65 -25L65 -81ZM604 56L604 137C604 137 501 282 226 341C501 399 604 542 604 542L604 623C604 621 502 422 65 352L65 326C502 256 604 56 604 56Z" stroke="rgb(0, 0, 0)" stroke-width="8" fill="rgb(0, 0, 0)" style="transform:matrix(0.017,0,0,-0.017,0,0);"></path></g><g style="transform:matrix(1,0,0,1,415.84375,22);"><path d="M342 330L365 330C373 395 380 432 389 458C365 473 330 482 293 482C248 483 175 463 118 400C64 352 25 241 25 136C25 40 67 -11 147 -11C201 -11 249 9 304 54L354 95L346 115L331 105C259 57 221 40 186 40C130 40 101 80 101 159C101 267 136 371 185 409C206 425 230 433 261 433C306 433 342 414 342 390Z" stroke="rgb(0, 0, 0)" stroke-width="8" fill="rgb(0, 0, 0)" style="transform:matrix(0.017,0,0,-0.017,0,0);"></path></g></g></g><g><g><g style="transform:matrix(1,0,0,1,316.0078125,142);"><path d="M271 204L242 77C238 60 236 42 236 26C236 4 245 -9 260 -9C283 -9 324 17 406 85L399 106C375 86 346 59 324 59C315 59 309 68 309 82C309 87 309 90 310 93L402 472L392 481L359 463C318 478 301 482 274 482C246 482 226 477 199 464C137 433 104 403 79 354C35 265 4 145 4 67C4 23 19 -11 38 -11C75 -11 155 41 271 204ZM319 414C297 305 278 253 244 201C187 117 126 59 94 59C82 59 76 72 76 99C76 163 104 280 139 360C163 415 186 433 234 433C257 433 275 429 319 414Z" stroke="rgb(0, 0, 0)" stroke-width="8" fill="rgb(0, 0, 0)" style="transform:matrix(0.017,0,0,-0.017,0,0);"></path></g><g style="transform:matrix(1,0,0,1,329.0078125,142);"><path d="M604 -81L604 -25L65 -25L65 -81ZM604 56L604 137C604 137 501 282 226 341C501 399 604 542 604 542L604 623C604 621 502 422 65 352L65 326C502 256 604 56 604 56Z" stroke="rgb(0, 0, 0)" stroke-width="8" fill="rgb(0, 0, 0)" style="transform:matrix(0.017,0,0,-0.017,0,0);"></path></g><g style="transform:matrix(1,0,0,1,345.0078125,142);"><path d="M342 330L365 330C373 395 380 432 389 458C365 473 330 482 293 482C248 483 175 463 118 400C64 352 25 241 25 136C25 40 67 -11 147 -11C201 -11 249 9 304 54L354 95L346 115L331 105C259 57 221 40 186 40C130 40 101 80 101 159C101 267 136 371 185 409C206 425 230 433 261 433C306 433 342 414 342 390Z" stroke="rgb(0, 0, 0)" stroke-width="8" fill="rgb(0, 0, 0)" style="transform:matrix(0.017,0,0,-0.017,0,0);"></path></g></g></g></svg>
</svg>
