<svg xmlns="http://www.w3.org/2000/svg" width="662" height="148" style="
        width:662px;
        height:148px;
        background: transparent;
        fill: none;
">
        
        <svg xmlns="http://www.w3.org/2000/svg"><g class="shapes-region" style="stroke: black; fill: none;"><g class="composite-shape"><path class="real" d=" M214,57.75 C214,55.68 215.68,54 217.75,54 C219.82,54 221.5,55.68 221.5,57.75 C221.5,59.82 219.82,61.5 217.75,61.5 C215.68,61.5 214,59.82 214,57.75 Z" style="stroke-width: 1; stroke: rgb(0, 0, 0); fill: rgb(0, 0, 0);"/></g><g class="composite-shape"><path class="real" d=" M386,135.75 C386,133.68 387.68,132 389.75,132 C391.82,132 393.5,133.68 393.5,135.75 C393.5,137.82 391.82,139.5 389.75,139.5 C387.68,139.5 386,137.82 386,135.75 Z" style="stroke-width: 1; stroke: rgb(0, 0, 0); fill: rgb(0, 0, 0);"/></g><g class="composite-shape"><path class="real" d=" M346,11.75 C346,9.68 347.68,8 349.75,8 C351.82,8 353.5,9.68 353.5,11.75 C353.5,13.82 351.82,15.5 349.75,15.5 C347.68,15.5 346,13.82 346,11.75 Z" style="stroke-width: 1; stroke: rgb(0, 0, 0); fill: rgb(0, 0, 0);"/></g><g class="composite-shape"><path class="real" d=" M267,21.75 C267,19.68 268.68,18 270.75,18 C272.82,18 274.5,19.68 274.5,21.75 C274.5,23.82 272.82,25.5 270.75,25.5 C268.68,25.5 267,23.82 267,21.75 Z" style="stroke-width: 1; stroke: rgb(0, 0, 0); fill: rgb(0, 0, 0);"/></g><g class="composite-shape"><path class="real" d=" M396,23.75 C396,21.68 397.68,20 399.75,20 C401.82,20 403.5,21.68 403.5,23.75 C403.5,25.82 401.82,27.5 399.75,27.5 C397.68,27.5 396,25.82 396,23.75 Z" style="stroke-width: 1; stroke: rgb(0, 0, 0); fill: rgb(0, 0, 0);"/></g><g class="composite-shape"><path class="real" d=" M327,105.75 C327,103.68 328.68,102 330.75,102 C332.82,102 334.5,103.68 334.5,105.75 C334.5,107.82 332.82,109.5 330.75,109.5 C328.68,109.5 327,107.82 327,105.75 Z" style="stroke-width: 1; stroke: rgb(0, 0, 0); fill: rgb(0, 0, 0);"/></g><g class="composite-shape"><path class="real" d=" M233,110.75 C233,108.68 234.68,107 236.75,107 C238.82,107 240.5,108.68 240.5,110.75 C240.5,112.82 238.82,114.5 236.75,114.5 C234.68,114.5 233,112.82 233,110.75 Z" style="stroke-width: 1; stroke: rgb(0, 0, 0); fill: rgb(0, 0, 0);"/></g><g class="composite-shape"><path class="real" d=" M389,81.75 C389,79.68 390.68,78 392.75,78 C394.82,78 396.5,79.68 396.5,81.75 C396.5,83.82 394.82,85.5 392.75,85.5 C390.68,85.5 389,83.82 389,81.75 Z" style="stroke-width: 1; stroke: rgb(0, 0, 0); fill: rgb(0, 0, 0);"/></g><g class="composite-shape"><path class="real" d=" M284,61.75 C284,59.68 285.68,58 287.75,58 C289.82,58 291.5,59.68 291.5,61.75 C291.5,63.82 289.82,65.5 287.75,65.5 C285.68,65.5 284,63.82 284,61.75 Z" style="stroke-width: 1; stroke: rgb(0, 0, 0); fill: rgb(0, 0, 0);"/></g><g class="composite-shape"><path class="real" d=" M444,94.75 C444,92.68 445.68,91 447.75,91 C449.82,91 451.5,92.68 451.5,94.75 C451.5,96.82 449.82,98.5 447.75,98.5 C445.68,98.5 444,96.82 444,94.75 Z" style="stroke-width: 1; stroke: rgb(0, 0, 0); fill: rgb(0, 0, 0);"/></g><g class="intersections-group"><g style="stroke: rgb(0, 0, 0); stroke-width: 1; fill: none;"/></g></g><g/><g/><!-- react-empty: 52203 --></svg>
        <svg xmlns="http://www.w3.org/2000/svg" width="660" height="146" style="width:660px;height:146px;font-family:Asana-Math, Asana;background:transparent;"><g><g><g style="transform:matrix(1,0,0,1,279.8671875,84);"><path d="M416 25L416 -3C464 -1 509 0 551 0C591 0 636 -1 684 -3L684 25L659 27C618 30 605 37 591 61L420 368L641 620C671 653 680 659 706 662L734 664L734 692L620 689C608 689 594 689 505 692L505 664L538 662C570 660 583 655 583 643C583 632 578 623 560 601L399 405L295 604C286 622 281 634 281 642C281 654 294 660 324 662L361 664L361 692L315 691C274 690 244 689 228 689C211 689 181 690 140 691L95 692L95 664L121 662C170 657 182 650 202 613L348 343L110 61C95 43 72 31 48 28L20 25L20 -3C69 -1 110 0 145 0C181 0 221 -1 264 -3L264 25L232 28C194 32 177 38 177 50C177 58 181 67 187 75L369 306L488 80C497 62 502 49 502 40C502 32 495 29 470 29L454 28Z" stroke="rgb(0, 0, 0)" stroke-width="8" fill="rgb(0, 0, 0)" style="transform:matrix(0.017,0,0,-0.017,0,0);"></path></g></g></g><g><g><g style="transform:matrix(1,0,0,1,387.3359375,104);"><path d="M52 647L55 623C78 632 89 635 100 635C147 635 183 589 224 477C248 410 287 273 286 257C286 257 286 254 285 251L264 125C247 34 246 31 206 28L158 25L154 -3L207 -2C254 -1 277 0 293 0L390 -3L416 -3L419 25L370 28C343 30 334 37 334 57C334 63 335 73 336 78L362 246C371 301 436 419 510 512C568 586 610 616 669 626L675 697C602 678 549 636 474 536C413 452 374 384 346 310C271 616 223 704 131 705C128 702 90 672 67 658Z" stroke="rgb(0, 0, 0)" stroke-width="8" fill="rgb(0, 0, 0)" style="transform:matrix(0.017,0,0,-0.017,0,0);"></path></g></g></g></svg>
</svg>
