<svg xmlns="http://www.w3.org/2000/svg" width="662" height="154" style="
        width:662px;
        height:154px;
        background: transparent;
        fill: none;
">
        
        <svg xmlns="http://www.w3.org/2000/svg"><g class="shapes-region" style="stroke: black; fill: none;"><g class="composite-shape"><path class="real" d=" M214,61.75 C214,59.68 215.68,58 217.75,58 C219.82,58 221.5,59.68 221.5,61.75 C221.5,63.82 219.82,65.5 217.75,65.5 C215.68,65.5 214,63.82 214,61.75 Z" style="stroke-width: 1; stroke: rgb(0, 0, 0); fill: rgb(0, 0, 0);"/></g><g class="composite-shape"><path class="real" d=" M386,139.75 C386,137.68 387.68,136 389.75,136 C391.82,136 393.5,137.68 393.5,139.75 C393.5,141.82 391.82,143.5 389.75,143.5 C387.68,143.5 386,141.82 386,139.75 Z" style="stroke-width: 1; stroke: rgb(0, 0, 0); fill: rgb(0, 0, 0);"/></g><g class="composite-shape"><path class="real" d=" M346,15.75 C346,13.68 347.68,12 349.75,12 C351.82,12 353.5,13.68 353.5,15.75 C353.5,17.82 351.82,19.5 349.75,19.5 C347.68,19.5 346,17.82 346,15.75 Z" style="stroke-width: 1; stroke: rgb(0, 0, 0); fill: rgb(0, 0, 0);"/></g><g class="composite-shape"><path class="real" d=" M267,25.75 C267,23.68 268.68,22 270.75,22 C272.82,22 274.5,23.68 274.5,25.75 C274.5,27.82 272.82,29.5 270.75,29.5 C268.68,29.5 267,27.82 267,25.75 Z" style="stroke-width: 1; stroke: rgb(0, 0, 0); fill: rgb(0, 0, 0);"/></g><g class="composite-shape"><path class="real" d=" M396,27.75 C396,25.68 397.68,24 399.75,24 C401.82,24 403.5,25.68 403.5,27.75 C403.5,29.82 401.82,31.5 399.75,31.5 C397.68,31.5 396,29.82 396,27.75 Z" style="stroke-width: 1; stroke: rgb(0, 0, 0); fill: rgb(0, 0, 0);"/></g><g class="composite-shape"><path class="real" d=" M327,109.75 C327,107.68 328.68,106 330.75,106 C332.82,106 334.5,107.68 334.5,109.75 C334.5,111.82 332.82,113.5 330.75,113.5 C328.68,113.5 327,111.82 327,109.75 Z" style="stroke-width: 1; stroke: rgb(0, 0, 0); fill: rgb(0, 0, 0);"/></g><g class="composite-shape"><path class="real" d=" M233,114.75 C233,112.68 234.68,111 236.75,111 C238.82,111 240.5,112.68 240.5,114.75 C240.5,116.82 238.82,118.5 236.75,118.5 C234.68,118.5 233,116.82 233,114.75 Z" style="stroke-width: 1; stroke: rgb(0, 0, 0); fill: rgb(0, 0, 0);"/></g><g class="composite-shape"><path class="real" d=" M389,85.75 C389,83.68 390.68,82 392.75,82 C394.82,82 396.5,83.68 396.5,85.75 C396.5,87.82 394.82,89.5 392.75,89.5 C390.68,89.5 389,87.82 389,85.75 Z" style="stroke-width: 1; stroke: rgb(0, 0, 0); fill: rgb(0, 0, 0);"/></g><g class="composite-shape"><path class="real" d=" M284,65.75 C284,63.68 285.68,62 287.75,62 C289.82,62 291.5,63.68 291.5,65.75 C291.5,67.82 289.82,69.5 287.75,69.5 C285.68,69.5 284,67.82 284,65.75 Z" style="stroke-width: 1; stroke: rgb(0, 0, 0); fill: rgb(0, 0, 0);"/></g><g class="composite-shape"><path class="real" d=" M444,98.75 C444,96.68 445.68,95 447.75,95 C449.82,95 451.5,96.68 451.5,98.75 C451.5,100.82 449.82,102.5 447.75,102.5 C445.68,102.5 444,100.82 444,98.75 Z" style="stroke-width: 1; stroke: rgb(0, 0, 0); fill: rgb(0, 0, 0);"/></g><g class="arrow-line"><path class="connection real" stroke-dasharray="" d="  M291.5,65.75 L387.04,85.35" style="stroke: rgb(0, 0, 0); stroke-width: 1; fill: none;"/><g stroke="#000" transform="matrix(-0.9796103293971523,-0.20090694995047498,0.20090694995047498,-0.9796103293971523,389,85.75)" style="stroke: rgb(0, 0, 0); stroke-width: 1;"><path d=" M10.93,-3.29 Q4.96,-0.45 0,0 Q4.96,0.45 10.93,3.29"/></g></g><g class="intersections-group"><g style="stroke: rgb(0, 0, 0); stroke-width: 1; fill: none;"/></g></g><g/><g/><!-- react-empty: 52268 --></svg>
        <svg xmlns="http://www.w3.org/2000/svg" width="660" height="152" style="width:660px;height:152px;font-family:Asana-Math, Asana;background:transparent;"><g><g><g style="transform:matrix(1,0,0,1,279.8671875,88);"><path d="M416 25L416 -3C464 -1 509 0 551 0C591 0 636 -1 684 -3L684 25L659 27C618 30 605 37 591 61L420 368L641 620C671 653 680 659 706 662L734 664L734 692L620 689C608 689 594 689 505 692L505 664L538 662C570 660 583 655 583 643C583 632 578 623 560 601L399 405L295 604C286 622 281 634 281 642C281 654 294 660 324 662L361 664L361 692L315 691C274 690 244 689 228 689C211 689 181 690 140 691L95 692L95 664L121 662C170 657 182 650 202 613L348 343L110 61C95 43 72 31 48 28L20 25L20 -3C69 -1 110 0 145 0C181 0 221 -1 264 -3L264 25L232 28C194 32 177 38 177 50C177 58 181 67 187 75L369 306L488 80C497 62 502 49 502 40C502 32 495 29 470 29L454 28Z" stroke="rgb(0, 0, 0)" stroke-width="8" fill="rgb(0, 0, 0)" style="transform:matrix(0.017,0,0,-0.017,0,0);"></path></g></g></g><g><g><g style="transform:matrix(1,0,0,1,387.3359375,108);"><path d="M52 647L55 623C78 632 89 635 100 635C147 635 183 589 224 477C248 410 287 273 286 257C286 257 286 254 285 251L264 125C247 34 246 31 206 28L158 25L154 -3L207 -2C254 -1 277 0 293 0L390 -3L416 -3L419 25L370 28C343 30 334 37 334 57C334 63 335 73 336 78L362 246C371 301 436 419 510 512C568 586 610 616 669 626L675 697C602 678 549 636 474 536C413 452 374 384 346 310C271 616 223 704 131 705C128 702 90 672 67 658Z" stroke="rgb(0, 0, 0)" stroke-width="8" fill="rgb(0, 0, 0)" style="transform:matrix(0.017,0,0,-0.017,0,0);"></path></g></g></g><g><g><g style="transform:matrix(1,0,0,1,340.78125,69.3);"><path d="M345 437L329 437L350 549C366 635 394 673 440 673C470 673 497 658 512 634L522 638C527 654 537 685 545 705L550 720C534 727 503 733 480 733C469 733 453 730 445 726C421 715 339 654 316 630C294 608 282 578 271 521L256 442C215 422 195 414 170 405L165 383L246 383L237 327C207 132 170 -54 148 -123C130 -182 100 -213 64 -213C41 -213 30 -206 12 -184L-2 -188C-6 -211 -20 -259 -25 -268C-16 -273 -1 -276 10 -276C51 -276 105 -245 144 -198C215 -114 235 -18 319 383L423 383C427 402 434 425 440 439L436 446C407 439 408 437 345 437Z" stroke="rgb(0, 0, 0)" stroke-width="8" fill="rgb(0, 0, 0)" style="transform:matrix(0.015300000000000001,0,0,-0.015300000000000001,0,0);"></path></g></g></g></svg>
</svg>
